<?xml version="1.0" encoding="UTF-8"?>
<svg width="700pt" height="700pt" version="1.1" viewBox="0 0 700 700" xmlns="http://www.w3.org/2000/svg">
 <g>
  <path fill="#ffffff" d="m147.42 225.26c0 34.176 30.223 61.898 67.531 61.898 37.293 0 67.496-27.719 67.496-61.898 0 34.176 30.258 61.898 67.551 61.898 37.273 0 67.496-27.719 67.496-61.898 0 34.176 30.258 61.898 67.531 61.898 37.273 0 67.531-27.719 67.531-61.898l0.003906-26.637h-405.14z"/>
  <path fill="#ffffff" d="m552.58 182.52-61.719-140.09h-79.434l18.285 140.09z"/>
  <path fill="#ffffff" d="m288.57 42.438h-79.434l-61.719 140.09h122.87z"/>
  <path fill="#ffffff" d="m387.05 42.438h-74.129l-18.289 140.09h110.71z"/>
  <path fill="#ffffff" d="m417.5 283.39c-16.746 17.168-40.809 27.93-67.496 27.93s-50.766-10.762-67.551-27.93c-16.746 17.148-40.809 27.93-67.496 27.93-22.051 0-42.316-7.3672-58.137-19.582v225.82h259.28v-96.617c0-22.262 18.043-40.32 40.301-40.32 22.262 0 40.301 18.043 40.301 40.32v96.617h46.48l0.003906-225.82c-15.855 12.215-36.102 19.582-58.137 19.582-26.703 0-50.766-10.762-67.551-27.93zm-42.332 165.71h-171.85v-97.824h171.85z"/>
 </g>
</svg>
