<?xml version="1.0" encoding="UTF-8"?>
<svg width="700pt" height="700pt" version="1.1" viewBox="0 0 700 700" xmlns="http://www.w3.org/2000/svg" xmlns:xlink="http://www.w3.org/1999/xlink">
 <defs>
  <symbol id="u" overflow="visible">
   <path d="m3.6562-0.21875c-0.1875 0.09375-0.38672 0.16797-0.59375 0.21875-0.19922 0.050781-0.40625 0.078125-0.625 0.078125-0.66797 0-1.1992-0.17969-1.5938-0.54688-0.38672-0.375-0.57812-0.87891-0.57812-1.5156 0-0.64453 0.19141-1.1484 0.57812-1.5156 0.39453-0.375 0.92578-0.5625 1.5938-0.5625 0.21875 0 0.42578 0.027344 0.625 0.078125 0.20703 0.054687 0.40625 0.125 0.59375 0.21875v0.82812c-0.1875-0.125-0.375-0.21875-0.5625-0.28125-0.17969-0.0625-0.37109-0.09375-0.57812-0.09375-0.36719 0-0.65625 0.12109-0.875 0.35938-0.21094 0.23047-0.3125 0.55469-0.3125 0.96875 0 0.40625 0.10156 0.73047 0.3125 0.96875 0.21875 0.23047 0.50781 0.34375 0.875 0.34375 0.20703 0 0.39844-0.023437 0.57812-0.078125 0.1875-0.0625 0.375-0.16016 0.5625-0.29688z"/>
  </symbol>
  <symbol id="d" overflow="visible">
   <path d="m2.6875-2.1719c-0.085938-0.039063-0.16797-0.070313-0.25-0.09375-0.085938-0.019531-0.16797-0.03125-0.25-0.03125-0.25 0-0.44531 0.085937-0.57812 0.25-0.125 0.15625-0.1875 0.38281-0.1875 0.67188v1.375h-0.96875v-2.9844h0.96875v0.48438c0.11328-0.19531 0.25-0.33594 0.40625-0.42188 0.16406-0.09375 0.35938-0.14062 0.57812-0.14062h0.10938c0.039063 0 0.09375 0.007812 0.15625 0.015625z"/>
  </symbol>
  <symbol id="b" overflow="visible">
   <path d="m3.4375-1.5v0.26562h-2.2344c0.03125 0.23047 0.11328 0.40234 0.25 0.51562 0.13281 0.10547 0.32812 0.15625 0.57812 0.15625 0.20703 0 0.41406-0.023438 0.625-0.078125 0.20703-0.0625 0.42188-0.15625 0.64062-0.28125v0.73438c-0.21875 0.09375-0.44531 0.16406-0.67188 0.20312-0.23047 0.039062-0.45312 0.0625-0.67188 0.0625-0.54297 0-0.96484-0.13281-1.2656-0.40625-0.30469-0.28125-0.45312-0.67188-0.45312-1.1719 0-0.47656 0.14453-0.85938 0.4375-1.1406 0.30078-0.28125 0.70703-0.42188 1.2188-0.42188 0.46875 0 0.84375 0.14062 1.125 0.42188s0.42188 0.66406 0.42188 1.1406zm-0.96875-0.32812c0-0.17578-0.058594-0.31641-0.17188-0.42188-0.10547-0.11328-0.24219-0.17188-0.40625-0.17188-0.1875 0-0.33984 0.054687-0.45312 0.15625-0.11719 0.10547-0.1875 0.25-0.21875 0.4375z"/>
  </symbol>
  <symbol id="k" overflow="visible">
   <path d="m1.7969-1.3438c-0.19922 0-0.35156 0.039062-0.45312 0.10938-0.09375 0.0625-0.14062 0.16406-0.14062 0.29688 0 0.11719 0.035156 0.21094 0.10938 0.28125 0.082031 0.0625 0.19531 0.09375 0.34375 0.09375 0.17578 0 0.32812-0.0625 0.45312-0.1875s0.1875-0.28516 0.1875-0.48438v-0.10938zm1.4688-0.35938v1.7031h-0.96875v-0.4375c-0.125 0.17969-0.27344 0.30859-0.4375 0.39062-0.15625 0.082031-0.35156 0.125-0.57812 0.125-0.3125 0-0.57031-0.085938-0.76562-0.26562-0.1875-0.1875-0.28125-0.42188-0.28125-0.70312 0-0.35156 0.11719-0.61328 0.35938-0.78125 0.23828-0.16406 0.61719-0.25 1.1406-0.25h0.5625v-0.0625c0-0.15625-0.0625-0.26562-0.1875-0.32812-0.11719-0.070312-0.29688-0.10938-0.54688-0.10938-0.21094 0-0.40234 0.023437-0.57812 0.0625-0.17969 0.042969-0.33984 0.10156-0.48438 0.17188v-0.71875c0.19531-0.050781 0.39844-0.085938 0.60938-0.10938 0.20703-0.03125 0.41406-0.046875 0.625-0.046875 0.53906 0 0.92969 0.10938 1.1719 0.32812 0.23828 0.21094 0.35938 0.55469 0.35938 1.0312z"/>
  </symbol>
  <symbol id="a" overflow="visible">
   <path d="m1.5-3.8438v0.85938h0.98438v0.67188h-0.98438v1.2812c0 0.13672 0.023438 0.23047 0.078125 0.28125 0.0625 0.042969 0.17578 0.0625 0.34375 0.0625h0.48438v0.6875h-0.8125c-0.38672 0-0.65625-0.078125-0.8125-0.23438s-0.23438-0.42188-0.23438-0.79688v-1.2812h-0.46875v-0.67188h0.46875v-0.85938z"/>
  </symbol>
  <symbol id="e" overflow="visible">
   <path d="m2.5-2.5469v-1.6094h0.95312v4.1562h-0.95312v-0.4375c-0.13672 0.17969-0.28125 0.30859-0.4375 0.39062-0.15625 0.082031-0.33984 0.125-0.54688 0.125-0.375 0-0.68359-0.14453-0.92188-0.4375-0.23047-0.28906-0.34375-0.67188-0.34375-1.1406 0-0.45703 0.11328-0.83203 0.34375-1.125 0.23828-0.28906 0.54688-0.4375 0.92188-0.4375 0.19531 0 0.375 0.042969 0.53125 0.125 0.16406 0.085938 0.31641 0.21484 0.45312 0.39062zm-0.64062 1.9375c0.20703 0 0.36328-0.070313 0.46875-0.21875 0.11328-0.15625 0.17188-0.37891 0.17188-0.67188 0-0.28125-0.058594-0.49219-0.17188-0.64062-0.10547-0.15625-0.26172-0.23438-0.46875-0.23438-0.19922 0-0.35547 0.078125-0.46875 0.23438-0.10547 0.14844-0.15625 0.35938-0.15625 0.64062 0 0.29297 0.050781 0.51562 0.15625 0.67188 0.11328 0.14844 0.26953 0.21875 0.46875 0.21875z"/>
  </symbol>
  <symbol id="j" overflow="visible">
   <path d="m2.0469-0.60938c0.20703 0 0.36328-0.070313 0.46875-0.21875 0.11328-0.15625 0.17188-0.37891 0.17188-0.67188 0-0.28125-0.058594-0.49219-0.17188-0.64062-0.10547-0.15625-0.26172-0.23438-0.46875-0.23438-0.19922 0-0.35547 0.078125-0.46875 0.23438-0.10547 0.14844-0.15625 0.35938-0.15625 0.64062 0 0.29297 0.050781 0.51562 0.15625 0.67188 0.11328 0.14844 0.26953 0.21875 0.46875 0.21875zm-0.625-1.9375c0.125-0.17578 0.26562-0.30469 0.42188-0.39062 0.16406-0.082031 0.35156-0.125 0.5625-0.125 0.36328 0 0.66406 0.14844 0.90625 0.4375 0.23828 0.29297 0.35938 0.66797 0.35938 1.125 0 0.46875-0.12109 0.85156-0.35938 1.1406-0.24219 0.29297-0.54297 0.4375-0.90625 0.4375-0.21094 0-0.39844-0.042969-0.5625-0.125-0.15625-0.082031-0.29688-0.21094-0.42188-0.39062v0.4375h-0.96875v-4.1562h0.96875z"/>
  </symbol>
  <symbol id="i" overflow="visible">
   <path d="m0.0625-2.9844h0.95312l0.8125 2.0156 0.6875-2.0156h0.95312l-1.2656 3.2656c-0.125 0.33203-0.27344 0.56641-0.4375 0.70312-0.16797 0.13281-0.39062 0.20312-0.67188 0.20312h-0.54688v-0.64062h0.29688c0.16406 0 0.28516-0.027344 0.35938-0.078125 0.070313-0.054688 0.12891-0.14062 0.17188-0.26562l0.03125-0.09375z"/>
  </symbol>
  <symbol id="h" overflow="visible">
   <path d="m0.15625-3.9844h0.98438l0.70312 2.8906 0.67188-2.8906h1l0.67188 2.8906 0.70312-2.8906h0.96875l-0.9375 3.9844h-1.1875l-0.71875-3.0312-0.71875 3.0312h-1.1875z"/>
  </symbol>
  <symbol id="g" overflow="visible">
   <path d="m0.45312-2.9844h0.96875v2.9844h-0.96875zm0-1.1719h0.96875v0.78125h-0.96875z"/>
  </symbol>
  <symbol id="t" overflow="visible">
   <path d="m3.2812-3.8594v0.84375c-0.21875-0.10156-0.43359-0.17578-0.64062-0.21875-0.21094-0.050781-0.40625-0.078125-0.59375-0.078125-0.25 0-0.43359 0.039062-0.54688 0.10938-0.11719 0.0625-0.17188 0.16797-0.17188 0.3125 0 0.10547 0.035156 0.1875 0.10938 0.25 0.082031 0.054687 0.22656 0.10156 0.4375 0.14062l0.4375 0.09375c0.44531 0.09375 0.75781 0.23047 0.9375 0.40625 0.1875 0.17969 0.28125 0.4375 0.28125 0.78125 0 0.4375-0.13281 0.76562-0.39062 0.98438-0.26172 0.21094-0.65625 0.3125-1.1875 0.3125-0.25 0-0.50781-0.027344-0.76562-0.078125-0.25-0.039062-0.50781-0.10938-0.76562-0.20312v-0.875c0.25781 0.13672 0.50391 0.24219 0.73438 0.3125 0.23828 0.0625 0.47266 0.09375 0.70312 0.09375 0.21875 0 0.38281-0.035156 0.5-0.10938 0.125-0.070312 0.1875-0.17578 0.1875-0.3125 0-0.125-0.042969-0.21875-0.125-0.28125-0.085937-0.070312-0.24609-0.13281-0.48438-0.1875l-0.39062-0.09375c-0.40625-0.082031-0.70312-0.21875-0.89062-0.40625-0.17969-0.1875-0.26562-0.44141-0.26562-0.76562 0-0.39453 0.125-0.69531 0.375-0.90625 0.25781-0.21875 0.62891-0.32812 1.1094-0.32812 0.22656 0 0.45703 0.023438 0.6875 0.0625 0.22656 0.03125 0.46875 0.078125 0.71875 0.14062z"/>
  </symbol>
  <symbol id="f" overflow="visible">
   <path d="m0.42188-1.1719v-1.8125h0.96875v0.29688 0.60938 0.48438c0 0.24219 0.003906 0.41797 0.015625 0.53125 0.007812 0.10547 0.03125 0.17969 0.0625 0.21875 0.039062 0.0625 0.09375 0.11719 0.15625 0.15625 0.0625 0.03125 0.13281 0.046875 0.21875 0.046875 0.19531 0 0.35156-0.078125 0.46875-0.23438 0.11328-0.15625 0.17188-0.36719 0.17188-0.64062v-1.4688h0.95312v2.9844h-0.95312v-0.4375c-0.14844 0.17969-0.30469 0.30859-0.46875 0.39062-0.15625 0.082031-0.33594 0.125-0.53125 0.125-0.34375 0-0.60938-0.10156-0.79688-0.3125-0.17969-0.21875-0.26562-0.53125-0.26562-0.9375z"/>
  </symbol>
  <symbol id="c" overflow="visible">
   <path d="m1.875-2.375c-0.21094 0-0.37109 0.078125-0.48438 0.23438-0.10547 0.14844-0.15625 0.35938-0.15625 0.64062 0 0.29297 0.050781 0.51562 0.15625 0.67188 0.11328 0.14844 0.27344 0.21875 0.48438 0.21875 0.20703 0 0.36719-0.070313 0.48438-0.21875 0.11328-0.15625 0.17188-0.37891 0.17188-0.67188 0-0.28125-0.058594-0.49219-0.17188-0.64062-0.11719-0.15625-0.27734-0.23438-0.48438-0.23438zm0-0.6875c0.51953 0 0.92188 0.14062 1.2031 0.42188 0.28906 0.27344 0.4375 0.65234 0.4375 1.1406 0 0.5-0.14844 0.89062-0.4375 1.1719-0.28125 0.27344-0.68359 0.40625-1.2031 0.40625-0.51172 0-0.91406-0.13281-1.2031-0.40625-0.29297-0.28125-0.4375-0.67188-0.4375-1.1719 0-0.48828 0.14453-0.86719 0.4375-1.1406 0.28906-0.28125 0.69141-0.42188 1.2031-0.42188z"/>
  </symbol>
  <symbol id="s" overflow="visible">
   <path d="m2.4219-4.1562v0.625h-0.51562c-0.13672 0-0.23438 0.027344-0.29688 0.078125-0.054687 0.054687-0.078125 0.13672-0.078125 0.25v0.21875h0.82812v0.67188h-0.82812v2.3125h-0.95312v-2.3125h-0.46875v-0.67188h0.46875v-0.21875c0-0.32031 0.085937-0.5625 0.26562-0.71875 0.1875-0.15625 0.47266-0.23438 0.85938-0.23438z"/>
  </symbol>
  <symbol id="r" overflow="visible">
   <path d="m3.2344-2.5c0.11328-0.17578 0.25391-0.3125 0.42188-0.40625 0.16406-0.10156 0.35156-0.15625 0.5625-0.15625 0.33203 0 0.58594 0.10938 0.76562 0.32812 0.1875 0.21094 0.28125 0.51172 0.28125 0.90625v1.8281h-0.96875v-1.5625c0.007813-0.019531 0.015625-0.039062 0.015625-0.0625v-0.10938c0-0.21875-0.03125-0.375-0.09375-0.46875s-0.16406-0.14062-0.29688-0.14062c-0.1875 0-0.33594 0.078125-0.4375 0.23438-0.09375 0.14844-0.14062 0.35938-0.14062 0.64062v1.4688h-0.96875v-1.5625c0-0.33203-0.03125-0.54688-0.09375-0.64062-0.054688-0.09375-0.15234-0.14062-0.29688-0.14062-0.17969 0-0.32031 0.078125-0.42188 0.23438-0.09375 0.14844-0.14062 0.35938-0.14062 0.64062v1.4688h-0.96875v-2.9844h0.96875v0.4375c0.11328-0.17578 0.24219-0.30469 0.39062-0.39062 0.15625-0.082031 0.32812-0.125 0.51562-0.125 0.20703 0 0.39062 0.054688 0.54688 0.15625 0.15625 0.09375 0.27344 0.23047 0.35938 0.40625z"/>
  </symbol>
  <symbol id="q" overflow="visible">
   <path d="m3.4688-1.8281v1.8281h-0.96875v-1.3906c0-0.25781-0.007812-0.4375-0.015625-0.53125-0.011719-0.10156-0.03125-0.17578-0.0625-0.21875-0.03125-0.0625-0.085937-0.10938-0.15625-0.14062-0.0625-0.039062-0.13281-0.0625-0.20312-0.0625-0.21094 0-0.37109 0.078125-0.48438 0.23438-0.10547 0.15625-0.15625 0.37109-0.15625 0.64062v1.4688h-0.96875v-4.1562h0.96875v1.6094c0.13281-0.17578 0.28516-0.30469 0.45312-0.39062 0.16406-0.082031 0.34375-0.125 0.53125-0.125 0.34375 0 0.60156 0.10938 0.78125 0.32812 0.1875 0.21094 0.28125 0.51172 0.28125 0.90625z"/>
  </symbol>
  <symbol id="p" overflow="visible">
   <path d="m0.5-3.9844h1.1562l1.4375 2.7344v-2.7344h0.98438v3.9844h-1.1562l-1.4375-2.7344v2.7344h-0.98438z"/>
  </symbol>
  <symbol id="o" overflow="visible">
   <path d="m3.4688-1.8281v1.8281h-0.96875v-1.3906c0-0.25781-0.007812-0.4375-0.015625-0.53125-0.011719-0.10156-0.03125-0.17578-0.0625-0.21875-0.03125-0.0625-0.085937-0.10938-0.15625-0.14062-0.0625-0.039062-0.13281-0.0625-0.20312-0.0625-0.21094 0-0.37109 0.078125-0.48438 0.23438-0.10547 0.15625-0.15625 0.37109-0.15625 0.64062v1.4688h-0.96875v-2.9844h0.96875v0.4375c0.13281-0.17578 0.28516-0.30469 0.45312-0.39062 0.16406-0.082031 0.34375-0.125 0.53125-0.125 0.34375 0 0.60156 0.10938 0.78125 0.32812 0.1875 0.21094 0.28125 0.51172 0.28125 0.90625z"/>
  </symbol>
  <symbol id="n" overflow="visible">
   <path d="m0.5-3.9844h1.7031c0.50781 0 0.89844 0.11719 1.1719 0.34375 0.26953 0.21875 0.40625 0.53906 0.40625 0.95312 0 0.41797-0.13672 0.74219-0.40625 0.96875-0.27344 0.21875-0.66406 0.32812-1.1719 0.32812h-0.67188v1.3906h-1.0312zm1.0312 0.75v1.1094h0.5625c0.19531 0 0.34766-0.046875 0.45312-0.14062 0.11328-0.10156 0.17188-0.24219 0.17188-0.42188 0-0.17578-0.058594-0.3125-0.17188-0.40625-0.10547-0.09375-0.25781-0.14062-0.45312-0.14062z"/>
  </symbol>
  <symbol id="m" overflow="visible">
   <path d="m0.45312-2.9844h0.96875v2.9375c0 0.39453-0.10156 0.69531-0.29688 0.90625-0.1875 0.21875-0.46484 0.32812-0.82812 0.32812h-0.48438v-0.64062h0.17188c0.17578 0 0.29688-0.042969 0.35938-0.125 0.070312-0.074219 0.10938-0.23047 0.10938-0.46875zm0-1.1719h0.96875v0.78125h-0.96875z"/>
  </symbol>
  <symbol id="l" overflow="visible">
   <path d="m2.875-2.8906v0.76562c-0.125-0.082031-0.25781-0.14453-0.39062-0.1875-0.13672-0.039062-0.27344-0.0625-0.40625-0.0625-0.27344 0-0.48047 0.078125-0.625 0.23438-0.14844 0.15625-0.21875 0.37109-0.21875 0.64062 0 0.28125 0.070313 0.5 0.21875 0.65625 0.14453 0.15625 0.35156 0.23438 0.625 0.23438 0.14453 0 0.28516-0.019531 0.42188-0.0625 0.13281-0.039063 0.25781-0.10938 0.375-0.20312v0.78125c-0.14844 0.0625-0.29688 0.10156-0.45312 0.125-0.15625 0.03125-0.3125 0.046875-0.46875 0.046875-0.54297 0-0.96484-0.13281-1.2656-0.40625-0.30469-0.28125-0.45312-0.67188-0.45312-1.1719 0-0.48828 0.14844-0.86719 0.45312-1.1406 0.30078-0.28125 0.72266-0.42188 1.2656-0.42188 0.15625 0 0.3125 0.015625 0.46875 0.046875 0.15625 0.023437 0.30469 0.0625 0.45312 0.125z"/>
  </symbol>
 </defs>
 <g>
  <path fill="#ffffff" d="m455 507.5c-14.109 0-28.219-1.3125-42.109-3.8281l-3.1719 17.172c14.984 2.7344 30.188 4.1562 45.391 4.1562 40.25 0 79.516-9.7344 110.58-27.344l-8.6406-15.203c-28.547 16.078-64.75 25.047-102.05 25.047z"/>
  <path fill="#ffffff" d="m572.25 472.39 10.5 14c6.6719-4.9219 12.906-10.5 18.703-16.516l-12.797-11.922c-5.0312 5.25-10.5 10.062-16.406 14.438z"/>
  <path fill="#ffffff" d="m138.14 137.81c-1.5312 6.0156-2.8438 12.141-3.8281 18.266l17.281 2.8438c0.98438-5.5781 2.1875-11.266 3.6094-16.734z"/>
  <path fill="#ffffff" d="m132.02 174.23c-0.54688 6.0156-0.76562 12.141-0.76562 18.266 0 18.484 2.2969 36.859 6.8906 54.688l16.953-4.375c-4.2656-16.406-6.3438-33.359-6.3438-50.312 0-5.5781 0.21875-11.266 0.65625-16.734z"/>
  <path fill="#ffffff" d="m97.016 70.875c21.438 3.9375 38.172 20.672 42.109 42.109 0.10938 0.4375 0.54688 0.76562 0.98438 0.76562 0.32812-0.10938 0.65625-0.32812 0.76562-0.76562 3.9375-21.438 20.672-38.172 42.109-42.109 0.4375-0.10938 0.76562-0.54688 0.76562-0.98438-0.10938-0.32812-0.32812-0.65625-0.76562-0.76562-21.438-3.9375-38.172-20.672-42.109-42.109-0.10938-0.4375-0.54688-0.76562-0.98438-0.76562-0.32812 0.10938-0.65625 0.32812-0.76562 0.76562-3.9375 21.438-20.672 38.172-42.109 42.109-0.4375 0.10938-0.76562 0.54688-0.76562 0.98438 0.10938 0.4375 0.32812 0.65625 0.76562 0.76562z"/>
  <path fill="#ffffff" d="m280 153.89v77.219l70 38.938 70-38.938v-77.219l-70-38.938zm74.484-12.688 43.75 26.25c2.625 1.5312 4.2656 4.4844 4.2656 7.5469v35h-17.5v-30.078l-35.438-21.219-30.734 15.312-7.875-15.641 35-17.5c2.8438-1.3125 6.0156-1.2031 8.5312 0.32812z"/>
  <path fill="#ffffff" d="m564.05 232.75c3.1719-13.234 4.7031-26.688 4.7031-40.25 0-96.469-78.531-175-175-175h-43.75c-96.469 0-175 78.531-175 175 0 21 3.7188 41.672 11.156 61.359-26.25 8.2031-49 21.656-66.391 39.375-21.109 21.438-32.266 47.141-32.266 74.266v61.25c0 30.953 16.734 59.828 47.25 81.375 29.531 20.891 68.688 32.375 110.25 32.375s80.719-11.484 110.25-32.375c15.75-11.156 27.891-24.281 35.875-38.609 20.672 6.4531 42.219 9.7344 63.875 9.7344 41.562 0 80.719-11.484 110.25-32.375 30.516-21.547 47.25-50.422 47.25-81.375v-52.5c0-31.172-17.609-60.812-48.453-82.25zm-68.031 56c7.2188-10.938 13.234-22.75 17.828-35h24.938c-5.25 12.469-12.25 24.281-20.562 35zm6.5625 17.5c-18.156 17.391-40.25 30.188-64.422 37.406 16.844-9.8438 31.938-22.531 44.734-37.406zm16.844-70c2.9531-11.484 4.7031-23.188 5.3594-35h26.25c-0.65625 11.812-2.625 23.625-5.9062 35zm31.609-52.5h-26.25c-0.54688-11.812-2.2969-23.516-5.25-35h25.594c3.2812 11.375 5.25 23.188 5.9062 35zm-32.703-87.5c8.3125 10.719 15.203 22.531 20.562 35h-24.938c-4.5938-12.25-10.609-24.062-17.828-35zm-15.75-17.5h-19.688c-12.688-14.875-27.781-27.453-44.734-37.406 24.172 7.2188 46.266 20.016 64.422 37.406zm-65.078 70v87.5c0 3.1719-1.75 6.125-4.4844 7.6562l-78.75 43.75c-2.625 1.4219-5.9062 1.4219-8.5312 0l-78.75-43.75c-2.7344-1.5312-4.4844-4.4844-4.4844-7.6562v-87.5c0-3.1719 1.75-6.125 4.4844-7.6562l78.75-43.75c2.625-1.4219 5.9062-1.4219 8.5312 0l78.75 43.75c2.7344 1.5312 4.4844 4.4844 4.4844 7.6562zm-122.94 215.14c5.9062 1.2031 11.922 2.0781 17.938 2.7344v0.875c0 20.891-19.25 39.047-50.203 47.688l-4.7031-16.844c22.312-6.125 37.297-18.484 37.297-30.734 0.10938-1.3125 0-2.5156-0.32812-3.7188zm35.438-311.39c24.5 0 48.672 6.4531 69.891 18.703l-8.75 15.203c-58.625-33.797-133.55-13.562-167.34 45.062-28.547 49.547-19.031 112.11 22.859 150.94l-11.812 12.797c-56.656-52.609-60.047-141.2-7.4375-197.86 26.469-28.656 63.656-44.844 102.59-44.844zm-156.41 338.3c13.562 7.5469 31.828 11.703 51.406 11.703 2.7344 0 5.4688-0.10938 8.2031-0.21875l1.0938 17.5c-3.0625 0.21875-6.2344 0.32812-9.2969 0.32812-49.109 0-87.5-23.078-87.5-52.5 0-4.0469 0.76562-7.9844 2.0781-11.703l16.406 6.0156c-0.65625 1.8594-0.98438 3.8281-1.0938 5.7969 0.10938 7.9844 6.8906 16.516 18.703 23.078zm-14.766-57.969c12.359-8.5312 29.094-14.219 47.469-16.625 5.7969 5.7969 12.141 11.266 18.703 16.188v0.10938c-22.203 0-42.656 5.3594-56.328 14.766zm-47.578 151.92c-16.516-15.75-26.25-35.109-26.25-56v-4.9219c7.2188 10.719 16.078 20.344 26.25 28.438zm-8.75-117.25c0-37.188 31.938-69.344 79.297-81.922 3.3906 5.3594 7 10.5 10.938 15.422-19.906 4.375-37.844 12.688-50.859 23.953-14.328 12.359-21.875 27.125-21.875 42.547 0 10.391 3.3906 20.453 10.172 29.859l-14.219 10.172c-8.75-12.25-13.453-26.031-13.453-40.031zm61.25 147.77c-12.359-4.0469-24.062-9.7344-35-16.734v-34.016c11.047 6.5625 22.75 11.922 35 15.859zm52.5 9.5156c-11.812-0.4375-23.516-2.0781-35-4.5938v-34.891c11.484 2.5156 23.188 4.0469 35 4.5938zm52.5-4.5938c-11.484 2.625-23.188 4.1562-35 4.5938v-35c11.812-0.4375 23.516-1.9688 35-4.5938zm52.5-21.656c-10.938 7-22.641 12.688-35 16.734v-34.891c12.25-3.9375 23.953-9.2969 35-15.859zm-96.25-43.531c-27.781 0-54.031-6.4531-75.797-18.594l8.5312-15.312c18.812 10.609 42.766 16.406 67.266 16.406 44.953 0 84.875-19.141 99.531-47.688l15.531 7.9844c-17.5 34.234-63.766 57.203-115.06 57.203zm140-26.25c0 20.891-9.7344 40.25-26.25 56v-32.484c10.172-8.0938 19.031-17.719 26.25-28.438zm-35-96.25c-22.75 0-45.172-5.5781-65.297-16.188l8.2031-15.422c59.828 31.609 133.98 8.6406 165.48-51.188 24.281-46.047 16.844-102.27-18.484-140.44l12.797-11.922c52.609 56.656 49.219 145.25-7.4375 197.86-25.922 23.953-59.938 37.297-95.266 37.297zm96.25 131.03c-16.297-0.65625-32.484-3.3906-48.016-8.0938 2.8438-8.6406 4.2656-17.609 4.2656-26.688v-6.4531c14.328 3.6094 28.984 5.6875 43.75 6.2344zm52.5-4.5938c-11.484 2.625-23.188 4.1562-35 4.5938v-35c11.812-0.4375 23.516-1.8594 35-4.2656zm52.5-21.656c-10.938 7-22.641 12.688-35 16.734v-34.016h-0.32812c12.25-3.6094 24.172-8.6406 35.328-14.875zm-11.266-65.297c-22.859 14-53.047 21.766-84.984 21.766-17.719 0.10938-35.438-2.4062-52.5-7.4375v-18.375c16.953 5.6875 34.672 8.4219 52.5 8.3125 28.766 0 55.672-6.7812 75.797-19.25 18.812-11.594 29.203-26.469 29.203-42 0-11.375-5.6875-22.641-16.297-32.375 3.0625-5.1406 5.9062-10.391 8.4219-15.859 16.406 13.672 25.375 30.625 25.375 48.234 0 21.875-13.344 42.109-37.516 56.984zm55.016-4.4844c0 20.891-9.7344 40.25-26.25 56v-29.75c10.062-7.3281 18.922-16.297 26.25-26.25z"/>
  <use x="70" y="576.40625" xlink:href="#u"/>
  <use x="74.011719" y="576.40625" xlink:href="#d"/>
  <use x="76.710938" y="576.40625" xlink:href="#b"/>
  <use x="80.417969" y="576.40625" xlink:href="#k"/>
  <use x="84.109375" y="576.40625" xlink:href="#a"/>
  <use x="86.722656" y="576.40625" xlink:href="#b"/>
  <use x="90.433594" y="576.40625" xlink:href="#e"/>
  <use x="96.25" y="576.40625" xlink:href="#j"/>
  <use x="100.167969" y="576.40625" xlink:href="#i"/>
  <use x="105.636719" y="576.40625" xlink:href="#h"/>
  <use x="111.667969" y="576.40625" xlink:href="#g"/>
  <use x="113.542969" y="576.40625" xlink:href="#t"/>
  <use x="117.480469" y="576.40625" xlink:href="#a"/>
  <use x="120.09375" y="576.40625" xlink:href="#f"/>
  <use x="123.988281" y="576.40625" xlink:href="#e"/>
  <use x="127.902344" y="576.40625" xlink:href="#g"/>
  <use x="129.777344" y="576.40625" xlink:href="#c"/>
  <use x="70" y="581.875" xlink:href="#s"/>
  <use x="72.378906" y="581.875" xlink:href="#d"/>
  <use x="75.078125" y="581.875" xlink:href="#c"/>
  <use x="78.832031" y="581.875" xlink:href="#r"/>
  <use x="86.4375" y="581.875" xlink:href="#a"/>
  <use x="89.050781" y="581.875" xlink:href="#q"/>
  <use x="92.941406" y="581.875" xlink:href="#b"/>
  <use x="98.554688" y="581.875" xlink:href="#p"/>
  <use x="103.132812" y="581.875" xlink:href="#c"/>
  <use x="106.890625" y="581.875" xlink:href="#f"/>
  <use x="110.785156" y="581.875" xlink:href="#o"/>
  <use x="116.582031" y="581.875" xlink:href="#n"/>
  <use x="120.589844" y="581.875" xlink:href="#d"/>
  <use x="123.285156" y="581.875" xlink:href="#c"/>
  <use x="127.042969" y="581.875" xlink:href="#m"/>
  <use x="128.917969" y="581.875" xlink:href="#b"/>
  <use x="132.625" y="581.875" xlink:href="#l"/>
  <use x="135.867188" y="581.875" xlink:href="#a"/>
 </g>
</svg>
